<mxfile host="app.diagrams.net" modified="2022-01-12T20:27:43.866Z" agent="5.0 (Windows NT 10.0; Win64; x64) AppleWebKit/537.36 (KHTML, like Gecko) Chrome/96.0.4664.110 Safari/537.36" etag="kz3nPz3lj_XPoyqeSzSG" version="16.2.4" type="github">
  <diagram id="7bgT6U9C5Xw6Ul9RuId8" name="Page-1">
    <mxGraphModel dx="1935" dy="450" grid="1" gridSize="10" guides="1" tooltips="1" connect="1" arrows="1" fold="1" page="1" pageScale="1" pageWidth="827" pageHeight="1169" math="0" shadow="0">
      <root>
        <mxCell id="0" />
        <mxCell id="1" parent="0" />
        <mxCell id="Ob0iKg38GHyP6AW2sxGB-9" value="Funcionario" style="swimlane;fontStyle=1;align=center;verticalAlign=top;childLayout=stackLayout;horizontal=1;startSize=26;horizontalStack=0;resizeParent=1;resizeParentMax=0;resizeLast=0;collapsible=1;marginBottom=0;" vertex="1" parent="1">
          <mxGeometry x="650" y="50" width="160" height="46" as="geometry" />
        </mxCell>
        <mxCell id="Ob0iKg38GHyP6AW2sxGB-13" value="&amp;lt;&amp;lt;abstract&amp;gt;&amp;gt;" style="text;html=1;align=center;verticalAlign=middle;resizable=0;points=[];autosize=1;strokeColor=none;fillColor=none;" vertex="1" parent="Ob0iKg38GHyP6AW2sxGB-9">
          <mxGeometry y="26" width="160" height="20" as="geometry" />
        </mxCell>
        <mxCell id="Ob0iKg38GHyP6AW2sxGB-14" value="FuncionarioAutenticavel" style="swimlane;fontStyle=1;align=center;verticalAlign=top;childLayout=stackLayout;horizontal=1;startSize=26;horizontalStack=0;resizeParent=1;resizeParentMax=0;resizeLast=0;collapsible=1;marginBottom=0;" vertex="1" parent="1">
          <mxGeometry x="330" y="170" width="160" height="66" as="geometry" />
        </mxCell>
        <mxCell id="Ob0iKg38GHyP6AW2sxGB-15" value="&amp;lt;&amp;lt;interface&amp;gt;&amp;gt;" style="text;html=1;align=center;verticalAlign=middle;resizable=0;points=[];autosize=1;strokeColor=none;fillColor=none;" vertex="1" parent="Ob0iKg38GHyP6AW2sxGB-14">
          <mxGeometry y="26" width="160" height="20" as="geometry" />
        </mxCell>
        <mxCell id="Ob0iKg38GHyP6AW2sxGB-16" value="+ atutentica(): boolean" style="text;html=1;align=center;verticalAlign=middle;resizable=0;points=[];autosize=1;strokeColor=none;fillColor=none;" vertex="1" parent="Ob0iKg38GHyP6AW2sxGB-14">
          <mxGeometry y="46" width="160" height="20" as="geometry" />
        </mxCell>
        <mxCell id="Ob0iKg38GHyP6AW2sxGB-34" style="edgeStyle=orthogonalEdgeStyle;rounded=0;orthogonalLoop=1;jettySize=auto;html=1;" edge="1" parent="1" source="Ob0iKg38GHyP6AW2sxGB-17" target="Ob0iKg38GHyP6AW2sxGB-14">
          <mxGeometry relative="1" as="geometry" />
        </mxCell>
        <mxCell id="Ob0iKg38GHyP6AW2sxGB-17" value="SistemanInterno" style="swimlane;fontStyle=1;align=center;verticalAlign=top;childLayout=stackLayout;horizontal=1;startSize=26;horizontalStack=0;resizeParent=1;resizeParentMax=0;resizeLast=0;collapsible=1;marginBottom=0;" vertex="1" parent="1">
          <mxGeometry x="70" y="180" width="160" height="46" as="geometry" />
        </mxCell>
        <mxCell id="Ob0iKg38GHyP6AW2sxGB-20" value="Administrador" style="swimlane;fontStyle=1;align=center;verticalAlign=top;childLayout=stackLayout;horizontal=1;startSize=26;horizontalStack=0;resizeParent=1;resizeParentMax=0;resizeLast=0;collapsible=1;marginBottom=0;" vertex="1" parent="1">
          <mxGeometry x="240" y="370" width="160" height="56" as="geometry" />
        </mxCell>
        <mxCell id="Ob0iKg38GHyP6AW2sxGB-22" value="EditorVideo" style="swimlane;fontStyle=1;align=center;verticalAlign=top;childLayout=stackLayout;horizontal=1;startSize=26;horizontalStack=0;resizeParent=1;resizeParentMax=0;resizeLast=0;collapsible=1;marginBottom=0;" vertex="1" parent="1">
          <mxGeometry x="650" y="370" width="160" height="56" as="geometry" />
        </mxCell>
        <mxCell id="Ob0iKg38GHyP6AW2sxGB-23" value="Designer" style="swimlane;fontStyle=1;align=center;verticalAlign=top;childLayout=stackLayout;horizontal=1;startSize=26;horizontalStack=0;resizeParent=1;resizeParentMax=0;resizeLast=0;collapsible=1;marginBottom=0;" vertex="1" parent="1">
          <mxGeometry x="840" y="370" width="160" height="56" as="geometry" />
        </mxCell>
        <mxCell id="Ob0iKg38GHyP6AW2sxGB-28" value="Implements" style="text;align=center;fontStyle=1;verticalAlign=middle;spacingLeft=3;spacingRight=3;strokeColor=none;rotatable=0;points=[[0,0.5],[1,0.5]];portConstraint=eastwest;" vertex="1" parent="1">
          <mxGeometry x="190" y="290" width="80" height="26" as="geometry" />
        </mxCell>
        <mxCell id="Ob0iKg38GHyP6AW2sxGB-29" value="Gerente" style="swimlane;fontStyle=1;align=center;verticalAlign=top;childLayout=stackLayout;horizontal=1;startSize=26;horizontalStack=0;resizeParent=1;resizeParentMax=0;resizeLast=0;collapsible=1;marginBottom=0;" vertex="1" parent="1">
          <mxGeometry x="440" y="370" width="160" height="56" as="geometry" />
        </mxCell>
        <mxCell id="Ob0iKg38GHyP6AW2sxGB-35" value="Polimorfismo" style="text;align=center;fontStyle=1;verticalAlign=middle;spacingLeft=3;spacingRight=3;strokeColor=none;rotatable=0;points=[[0,0.5],[1,0.5]];portConstraint=eastwest;" vertex="1" parent="1">
          <mxGeometry x="240" y="70" width="80" height="26" as="geometry" />
        </mxCell>
        <mxCell id="Ob0iKg38GHyP6AW2sxGB-36" value="Cliente" style="swimlane;fontStyle=1;align=center;verticalAlign=top;childLayout=stackLayout;horizontal=1;startSize=26;horizontalStack=0;resizeParent=1;resizeParentMax=0;resizeLast=0;collapsible=1;marginBottom=0;" vertex="1" parent="1">
          <mxGeometry x="40" y="370" width="160" height="56" as="geometry" />
        </mxCell>
        <mxCell id="Ob0iKg38GHyP6AW2sxGB-38" value="Fiscal" style="swimlane;fontStyle=1;align=center;verticalAlign=top;childLayout=stackLayout;horizontal=1;startSize=26;horizontalStack=0;resizeParent=1;resizeParentMax=0;resizeLast=0;collapsible=1;marginBottom=0;" vertex="1" parent="1">
          <mxGeometry x="-140" y="370" width="160" height="56" as="geometry" />
        </mxCell>
        <mxCell id="Ob0iKg38GHyP6AW2sxGB-39" value="AutenticacaoUtil" style="swimlane;fontStyle=1;align=center;verticalAlign=top;childLayout=stackLayout;horizontal=1;startSize=26;horizontalStack=0;resizeParent=1;resizeParentMax=0;resizeLast=0;collapsible=1;marginBottom=0;" vertex="1" parent="1">
          <mxGeometry x="240" y="520" width="160" height="56" as="geometry" />
        </mxCell>
        <mxCell id="Ob0iKg38GHyP6AW2sxGB-40" value="1" style="endArrow=open;html=1;endSize=12;startArrow=diamondThin;startSize=14;startFill=1;edgeStyle=orthogonalEdgeStyle;align=left;verticalAlign=bottom;rounded=0;exitX=0.5;exitY=1;exitDx=0;exitDy=0;entryX=0.5;entryY=0;entryDx=0;entryDy=0;" edge="1" parent="1" source="Ob0iKg38GHyP6AW2sxGB-36" target="Ob0iKg38GHyP6AW2sxGB-39">
          <mxGeometry x="-1" y="3" relative="1" as="geometry">
            <mxPoint x="100" y="470" as="sourcePoint" />
            <mxPoint x="210" y="520" as="targetPoint" />
          </mxGeometry>
        </mxCell>
        <mxCell id="Ob0iKg38GHyP6AW2sxGB-41" value="1" style="endArrow=open;html=1;endSize=12;startArrow=diamondThin;startSize=14;startFill=1;edgeStyle=orthogonalEdgeStyle;align=left;verticalAlign=bottom;rounded=0;exitX=0.5;exitY=1;exitDx=0;exitDy=0;" edge="1" parent="1" source="Ob0iKg38GHyP6AW2sxGB-20">
          <mxGeometry x="-1" y="3" relative="1" as="geometry">
            <mxPoint y="610" as="sourcePoint" />
            <mxPoint x="320" y="518" as="targetPoint" />
          </mxGeometry>
        </mxCell>
        <mxCell id="Ob0iKg38GHyP6AW2sxGB-42" value="1" style="endArrow=open;html=1;endSize=12;startArrow=diamondThin;startSize=14;startFill=1;edgeStyle=orthogonalEdgeStyle;align=left;verticalAlign=bottom;rounded=0;exitX=0.5;exitY=1;exitDx=0;exitDy=0;" edge="1" parent="1" source="Ob0iKg38GHyP6AW2sxGB-29">
          <mxGeometry x="-1" y="3" relative="1" as="geometry">
            <mxPoint x="510" y="490" as="sourcePoint" />
            <mxPoint x="320" y="520" as="targetPoint" />
          </mxGeometry>
        </mxCell>
        <mxCell id="Ob0iKg38GHyP6AW2sxGB-43" value="" style="endArrow=block;dashed=1;endFill=0;endSize=12;html=1;rounded=0;exitX=0.5;exitY=0;exitDx=0;exitDy=0;entryX=0.495;entryY=1.075;entryDx=0;entryDy=0;entryPerimeter=0;" edge="1" parent="1" source="Ob0iKg38GHyP6AW2sxGB-38" target="Ob0iKg38GHyP6AW2sxGB-16">
          <mxGeometry width="160" relative="1" as="geometry">
            <mxPoint x="-70" y="270" as="sourcePoint" />
            <mxPoint x="410" y="270" as="targetPoint" />
            <Array as="points">
              <mxPoint x="-60" y="270" />
              <mxPoint x="190" y="270" />
              <mxPoint x="409" y="270" />
            </Array>
          </mxGeometry>
        </mxCell>
        <mxCell id="Ob0iKg38GHyP6AW2sxGB-44" value="" style="endArrow=block;dashed=1;endFill=0;endSize=12;html=1;rounded=0;exitX=0.463;exitY=-0.036;exitDx=0;exitDy=0;exitPerimeter=0;" edge="1" parent="1" source="Ob0iKg38GHyP6AW2sxGB-36">
          <mxGeometry width="160" relative="1" as="geometry">
            <mxPoint x="120" y="310" as="sourcePoint" />
            <mxPoint x="410" y="240" as="targetPoint" />
            <Array as="points">
              <mxPoint x="114" y="270" />
              <mxPoint x="410" y="270" />
            </Array>
          </mxGeometry>
        </mxCell>
        <mxCell id="Ob0iKg38GHyP6AW2sxGB-45" value="" style="endArrow=block;dashed=1;endFill=0;endSize=12;html=1;rounded=0;exitX=0.5;exitY=0;exitDx=0;exitDy=0;" edge="1" parent="1" source="Ob0iKg38GHyP6AW2sxGB-20">
          <mxGeometry width="160" relative="1" as="geometry">
            <mxPoint x="340" y="310" as="sourcePoint" />
            <mxPoint x="410" y="240" as="targetPoint" />
            <Array as="points">
              <mxPoint x="320" y="270" />
              <mxPoint x="410" y="270" />
            </Array>
          </mxGeometry>
        </mxCell>
        <mxCell id="Ob0iKg38GHyP6AW2sxGB-46" value="" style="endArrow=block;dashed=1;endFill=0;endSize=12;html=1;rounded=0;exitX=0.5;exitY=0;exitDx=0;exitDy=0;" edge="1" parent="1" source="Ob0iKg38GHyP6AW2sxGB-29">
          <mxGeometry width="160" relative="1" as="geometry">
            <mxPoint x="520" y="310" as="sourcePoint" />
            <mxPoint x="410" y="240" as="targetPoint" />
            <Array as="points">
              <mxPoint x="520" y="270" />
              <mxPoint x="410" y="270" />
            </Array>
          </mxGeometry>
        </mxCell>
        <mxCell id="Ob0iKg38GHyP6AW2sxGB-47" value="Composition" style="text;align=center;fontStyle=1;verticalAlign=middle;spacingLeft=3;spacingRight=3;strokeColor=none;rotatable=0;points=[[0,0.5],[1,0.5]];portConstraint=eastwest;" vertex="1" parent="1">
          <mxGeometry x="220" y="480" width="80" height="26" as="geometry" />
        </mxCell>
        <mxCell id="Ob0iKg38GHyP6AW2sxGB-48" value="Extends" style="endArrow=block;endSize=16;endFill=0;html=1;rounded=0;entryX=0.463;entryY=1.2;entryDx=0;entryDy=0;entryPerimeter=0;exitX=0.5;exitY=0;exitDx=0;exitDy=0;" edge="1" parent="1" source="Ob0iKg38GHyP6AW2sxGB-29" target="Ob0iKg38GHyP6AW2sxGB-13">
          <mxGeometry width="160" relative="1" as="geometry">
            <mxPoint x="700" y="300" as="sourcePoint" />
            <mxPoint x="860" y="300" as="targetPoint" />
            <Array as="points">
              <mxPoint x="520" y="240" />
              <mxPoint x="724" y="240" />
            </Array>
          </mxGeometry>
        </mxCell>
        <mxCell id="Ob0iKg38GHyP6AW2sxGB-49" value="Extends" style="endArrow=block;endSize=16;endFill=0;html=1;rounded=0;exitX=0.463;exitY=-0.018;exitDx=0;exitDy=0;exitPerimeter=0;" edge="1" parent="1" source="Ob0iKg38GHyP6AW2sxGB-22">
          <mxGeometry x="0.1123" y="-4" width="160" relative="1" as="geometry">
            <mxPoint x="714" y="370" as="sourcePoint" />
            <mxPoint x="724" y="100" as="targetPoint" />
            <Array as="points">
              <mxPoint x="724" y="240" />
            </Array>
            <mxPoint as="offset" />
          </mxGeometry>
        </mxCell>
        <mxCell id="Ob0iKg38GHyP6AW2sxGB-50" value="Extends" style="endArrow=block;endSize=16;endFill=0;html=1;rounded=0;exitX=0.5;exitY=0;exitDx=0;exitDy=0;" edge="1" parent="1" source="Ob0iKg38GHyP6AW2sxGB-23">
          <mxGeometry width="160" relative="1" as="geometry">
            <mxPoint x="880" y="260" as="sourcePoint" />
            <mxPoint x="720" y="100" as="targetPoint" />
            <Array as="points">
              <mxPoint x="920" y="240" />
              <mxPoint x="730" y="240" />
            </Array>
          </mxGeometry>
        </mxCell>
        <mxCell id="Ob0iKg38GHyP6AW2sxGB-61" style="edgeStyle=orthogonalEdgeStyle;rounded=0;orthogonalLoop=1;jettySize=auto;html=1;" edge="1" parent="1" source="Ob0iKg38GHyP6AW2sxGB-51" target="Ob0iKg38GHyP6AW2sxGB-52">
          <mxGeometry relative="1" as="geometry">
            <Array as="points">
              <mxPoint x="230" y="730" />
            </Array>
          </mxGeometry>
        </mxCell>
        <mxCell id="Ob0iKg38GHyP6AW2sxGB-62" style="edgeStyle=orthogonalEdgeStyle;rounded=0;orthogonalLoop=1;jettySize=auto;html=1;" edge="1" parent="1" source="Ob0iKg38GHyP6AW2sxGB-51" target="Ob0iKg38GHyP6AW2sxGB-53">
          <mxGeometry relative="1" as="geometry">
            <Array as="points">
              <mxPoint x="474" y="730" />
            </Array>
          </mxGeometry>
        </mxCell>
        <mxCell id="Ob0iKg38GHyP6AW2sxGB-51" value="Herança com Java" style="rounded=1;whiteSpace=wrap;html=1;" vertex="1" parent="1">
          <mxGeometry x="290" y="700" width="120" height="60" as="geometry" />
        </mxCell>
        <mxCell id="Ob0iKg38GHyP6AW2sxGB-52" value="Reutilização de Código" style="rounded=1;whiteSpace=wrap;html=1;" vertex="1" parent="1">
          <mxGeometry x="170" y="860" width="120" height="60" as="geometry" />
        </mxCell>
        <mxCell id="Ob0iKg38GHyP6AW2sxGB-53" value="Polymorfismo" style="rounded=1;whiteSpace=wrap;html=1;" vertex="1" parent="1">
          <mxGeometry x="414" y="860" width="120" height="60" as="geometry" />
        </mxCell>
        <mxCell id="Ob0iKg38GHyP6AW2sxGB-56" style="edgeStyle=orthogonalEdgeStyle;rounded=0;orthogonalLoop=1;jettySize=auto;html=1;entryX=0.5;entryY=1;entryDx=0;entryDy=0;" edge="1" parent="1" source="Ob0iKg38GHyP6AW2sxGB-54" target="Ob0iKg38GHyP6AW2sxGB-53">
          <mxGeometry relative="1" as="geometry" />
        </mxCell>
        <mxCell id="Ob0iKg38GHyP6AW2sxGB-54" value="Interfaces com Java" style="rounded=1;whiteSpace=wrap;html=1;" vertex="1" parent="1">
          <mxGeometry x="414" y="1010" width="120" height="60" as="geometry" />
        </mxCell>
        <mxCell id="Ob0iKg38GHyP6AW2sxGB-58" style="edgeStyle=orthogonalEdgeStyle;rounded=0;orthogonalLoop=1;jettySize=auto;html=1;entryX=0.5;entryY=1;entryDx=0;entryDy=0;" edge="1" parent="1" source="Ob0iKg38GHyP6AW2sxGB-55" target="Ob0iKg38GHyP6AW2sxGB-52">
          <mxGeometry relative="1" as="geometry" />
        </mxCell>
        <mxCell id="Ob0iKg38GHyP6AW2sxGB-55" value="Composição com java" style="rounded=1;whiteSpace=wrap;html=1;" vertex="1" parent="1">
          <mxGeometry x="170" y="1010" width="120" height="60" as="geometry" />
        </mxCell>
      </root>
    </mxGraphModel>
  </diagram>
</mxfile>
